<svg xmlns="http://www.w3.org/2000/svg" viewBox="0 0 32 32" fill="none">
  <defs>
    <linearGradient id="favicon-grad" x1="0" y1="0" x2="32" y2="32">
      <stop offset="0%" stop-color="#4f46e5"/>
      <stop offset="100%" stop-color="#6366f1"/>
    </linearGradient>
  </defs>
  <rect width="32" height="32" rx="6" fill="url(#favicon-grad)"/>
  <path d="M7 9C7 7.89543 7.89543 7 9 7H23C24.1046 7 25 7.89543 25 9V25C25 26.1046 24.1046 27 23 27H9C7.89543 27 7 26.1046 7 25V9Z" fill="white"/>
  <path d="M19 7L27 15H21C19.8954 15 19 14.1046 19 13V7Z" fill="url(#favicon-grad)" opacity="0.3"/>
  <rect x="11" y="13" width="10" height="1.5" rx="0.75" fill="url(#favicon-grad)" opacity="0.35"/>
  <rect x="11" y="17" width="8" height="1.5" rx="0.75" fill="url(#favicon-grad)" opacity="0.25"/>
  <rect x="11" y="21" width="6" height="1.5" rx="0.75" fill="url(#favicon-grad)" opacity="0.2"/>
</svg>
