<svg xmlns="http://www.w3.org/2000/svg" viewBox="0 0 172 40" fill="none">
  <defs>
    <linearGradient id="pe-logo-grad" x1="0" y1="0" x2="28" y2="28">
      <stop offset="0%" stop-color="#4f46e5"/>
      <stop offset="100%" stop-color="#6366f1"/>
    </linearGradient>
  </defs>
  <rect x="2" y="4" width="28" height="32" rx="6" fill="url(#pe-logo-grad)" opacity="0.10"/>
  <path d="M6 8C6 6.89543 6.89543 6 8 6H22C23.1046 6 24 6.89543 24 8V32C24 33.1046 23.1046 34 22 34H8C6.89543 34 6 33.1046 6 32V8Z" fill="white" stroke="url(#pe-logo-grad)" stroke-width="1.5"/>
  <path d="M18 6L26 14H20C18.8954 14 18 13.1046 18 12V6Z" fill="url(#pe-logo-grad)" opacity="0.20"/>
  <rect x="10" y="14" width="10" height="2" rx="1" fill="url(#pe-logo-grad)" opacity="0.30"/>
  <rect x="10" y="19" width="8" height="2" rx="1" fill="url(#pe-logo-grad)" opacity="0.20"/>
  <rect x="10" y="24" width="6" height="2" rx="1" fill="url(#pe-logo-grad)" opacity="0.15"/>
  <text x="42" y="26" font-family="-apple-system, BlinkMacSystemFont, 'Segoe UI', Roboto, sans-serif" font-size="18" font-weight="800" fill="#0f172a" letter-spacing="-0.03em">Print</text>
  <text x="89" y="26" font-family="-apple-system, BlinkMacSystemFont, 'Segoe UI', Roboto, sans-serif" font-size="18" font-weight="400" fill="#64748b" letter-spacing="-0.01em">Edge</text>
</svg>
